<svg width="24" height="24" viewBox="0 0 24 24" fill="none" xmlns="http://www.w3.org/2000/svg">
<rect width="24" height="24" fill="#434345"/>
<g id="Components / Financial Data Management">
<path d="M-205 -902C-205 -903.105 -204.105 -904 -203 -904H7162C7163.1 -904 7164 -903.105 7164 -902V13102C7164 13103.1 7163.1 13104 7162 13104H-203C-204.105 13104 -205 13103.1 -205 13102V-902Z" fill="#322F37"/>
<path d="M-203 -903H7162V-905H-203V-903ZM7163 -902V13102H7165V-902H7163ZM7162 13103H-203V13105H7162V13103ZM-204 13102V-902H-206V13102H-204ZM-203 13103C-203.552 13103 -204 13102.6 -204 13102H-206C-206 13103.7 -204.657 13105 -203 13105V13103ZM7163 13102C7163 13102.6 7162.55 13103 7162 13103V13105C7163.66 13105 7165 13103.7 7165 13102H7163ZM7162 -903C7162.55 -903 7163 -902.552 7163 -902H7165C7165 -903.657 7163.66 -905 7162 -905V-903ZM-203 -905C-204.657 -905 -206 -903.657 -206 -902H-204C-204 -902.552 -203.552 -903 -203 -903V-905Z" fill="#281E39"/>
<g id="fdm-icon">
<path id="Vector" fill-rule="evenodd" clip-rule="evenodd" d="M12 12.75C14.664 12.75 17.2725 12.3555 19.305 11.418C19.908 11.145 20.4769 10.8021 21 10.3965V12C21 15 16.971 16.5 12 16.5C7.029 16.5 3 15 3 12V10.395C3.525 10.8075 4.104 11.1465 4.695 11.418C6.7275 12.3555 9.336 12.75 12 12.75ZM21 6C21 9 16.971 10.5 12 10.5C7.029 10.5 3 9 3 6C3 5.496 3.114 5.0355 3.3255 4.6155C4.38 2.538 7.863 1.5 12 1.5C13.242 1.5 14.427 1.5945 15.5025 1.782C18.735 2.3445 21 3.75 21 6ZM12 22.5C16.971 22.5 21 21 21 18V16.395C20.475 16.8075 19.896 17.1465 19.305 17.4195C17.2725 18.354 14.664 18.75 12 18.75C9.336 18.75 6.7275 18.354 4.695 17.4195C4.09223 17.1448 3.52341 16.801 3 16.395V18C3 21 7.029 22.5 12 22.5Z" fill="black"/>
</g>
</g>
</svg>
